<?xml version="1.0" encoding="UTF-8"?>
<svg width="1200pt" height="1200pt" version="1.1" viewBox="0 0 1200 1200" xmlns="http://www.w3.org/2000/svg">
  <rect x="0" y="0" width="1200" height="1200" fill="white"/>
  <g>
    <path d="m774.66 629.74c0-23.371-19.02-42.387-42.387-42.387h-58.77c-23.367 0-42.387 19.012-42.387 42.387 0 23.367 19.02 42.375 42.387 42.375h58.77c23.367 0 42.387-19.008 42.387-42.375zm-42.387 30.375h-58.77c-16.758 0-30.387-13.629-30.387-30.375 0-16.758 13.629-30.387 30.387-30.387h58.77c16.758 0 30.387 13.629 30.387 30.387 0 16.746-13.629 30.375-30.387 30.375z"/>
    <path d="m407.84 566.72c-26.156 0-47.438 21.281-47.438 47.438s21.281 47.438 47.438 47.438 47.434-21.281 47.434-47.438-21.277-47.438-47.434-47.438zm0 82.875c-19.543 0-35.438-15.902-35.438-35.438 0-19.543 15.898-35.438 35.438-35.438 19.535 0 35.434 15.898 35.434 35.438 0 19.535-15.898 35.438-35.434 35.438z"/>
    <path d="m132.57 610.07c0-40.203 4.1484-79.973 11.992-115.02 0.72656-3.2344-1.3086-6.4453-4.543-7.168-3.2227-0.71484-6.4375 1.3164-7.168 4.543-8.0391 35.895-12.289 76.578-12.289 117.64 0 43.465 4.7266 86.227 13.676 123.64 0.65625 2.7539 3.1172 4.6055 5.832 4.6055 0.46094 0 0.93359-0.046875 1.4023-0.16406 3.2227-0.77344 5.207-4.0078 4.4414-7.2305-8.7305-36.527-13.348-78.316-13.348-120.86z"/>
  <path d="m166.16 609.77c0-37.551 3.8789-74.719 11.207-107.48 0.72656-3.2344-1.3086-6.4453-4.543-7.168-3.2266-0.69141-6.4453 1.3125-7.168 4.543-7.5234 33.609-11.504 71.684-11.504 110.1 0 40.648 4.4219 80.668 12.797 115.72 0.65625 2.7539 3.1172 4.6055 5.832 4.6055 0.46094 0 0.93359-0.046875 1.4023-0.16406 3.2227-0.77344 5.207-4.0078 4.4414-7.2305-8.1562-34.148-12.469-73.195-12.469-112.93z"/>
  <path d="m199.75 609.46c0-34.902 3.6016-69.461 10.422-99.934 0.72656-3.2344-1.3086-6.4453-4.543-7.168-3.2266-0.71484-6.4453 1.3164-7.168 4.543-7.0117 31.316-10.719 66.785-10.719 102.56 0 37.859 4.125 75.133 11.922 107.79 0.65625 2.7539 3.1172 4.6055 5.832 4.6055 0.46094 0 0.93359-0.046875 1.4023-0.16406 3.2227-0.77344 5.207-4.0078 4.4414-7.2305-7.5859-31.758-11.598-68.074-11.598-105.01z"/>
  <path d="m233.35 609.16c0-32.297 3.332-64.246 9.6328-92.391 0.72656-3.2344-1.3086-6.4453-4.543-7.168-3.2266-0.6875-6.4453 1.3125-7.168 4.543-6.4922 28.996-9.9258 61.852-9.9258 95.016 0 35.086 3.8203 69.621 11.043 99.867 0.65625 2.7539 3.1172 4.6055 5.832 4.6055 0.46094 0 0.93359-0.046875 1.4023-0.16406 3.2227-0.77344 5.207-4.0078 4.4414-7.2305-7.0117-29.344-10.719-62.918-10.719-97.078z"/>
  <path d="m266.94 608.86c0-29.648 3.0586-58.988 8.8477-84.844 0.72656-3.2344-1.3086-6.4453-4.543-7.168-3.2266-0.70703-6.4453 1.3164-7.168 4.543-5.9844 26.707-9.1406 56.953-9.1406 87.469 0 32.297 3.5156 64.09 10.172 91.934 0.65625 2.7539 3.1172 4.6055 5.832 4.6055 0.46094 0 0.93359-0.046876 1.4023-0.16406 3.2227-0.77344 5.207-4.0078 4.4414-7.2305-6.4375-26.941-9.8438-57.773-9.8438-89.145z"/>
  <path d="m300.53 608.56c0-27 2.7891-53.73 8.0625-77.301 0.72656-3.2344-1.3086-6.4453-4.543-7.168-3.2344-0.72656-6.4453 1.3164-7.168 4.543-5.4688 24.422-8.3555 52.062-8.3555 79.926 0 29.492 3.2188 58.543 9.2969 84.008 0.65625 2.7539 3.1172 4.6055 5.832 4.6055 0.46094 0 0.93359-0.046875 1.4023-0.16406 3.2227-0.77344 5.207-4.0078 4.4414-7.2305-5.8711-24.562-8.9727-52.652-8.9727-81.219z"/>
  <path d="m334.13 608.26c0-24.391 2.5117-48.516 7.2734-69.758 0.72656-3.2344-1.3086-6.4453-4.543-7.168-3.2344-0.70312-6.4336 1.3125-7.168 4.543-4.9531 22.09-7.5625 47.117-7.5625 72.383 0 26.723 2.9141 53.031 8.418 76.082 0.65625 2.7539 3.1172 4.6055 5.832 4.6055 0.46094 0 0.93359-0.046874 1.4023-0.16406 3.2227-0.77344 5.207-4.0078 4.4414-7.2305-5.293-22.16-8.0938-47.496-8.0938-73.293z"/>
  <path d="m484.25 613.3c0-17.469 6.7617-34.008 19.039-46.582 1.6641-1.707 2.1641-4.2383 1.2656-6.4531-0.90234-2.207-3.0234-3.6719-5.4062-3.7383l-8.0859-0.19922-111.52-42.246c-24.098-9.1289-49.047-16.598-74.164-22.203l-165.67-37.004c-13.953-3.1758-27.891 4.3086-33.133 17.668-10.203 25.961-27.316 80.027-27.316 150.45 0 69.867 19.125 111.6 30.523 130.25 5.2617 8.625 14.66 13.711 24.551 13.711 1.957 0 3.9375-0.19922 5.9062-0.60938l169.92-35.543c24.176-5.0625 48.188-11.824 71.367-20.098l109.4-39h9.7422c2.4492 0 4.6523-1.4883 5.5664-3.7617 0.91406-2.2734 0.35937-4.8633-1.4062-6.5625-13.273-12.762-20.578-29.836-20.578-48.082zm-106.76 86.109c-22.668 8.0859-46.152 14.695-69.797 19.652l-169.92 35.543c-7.0117 1.4062-14.098-1.6172-17.758-7.6172-10.742-17.578-28.762-57.07-28.762-124 0-68.438 16.594-120.88 26.484-146.06 2.6016-6.6211 8.8438-10.754 15.637-10.754 1.2227 0 2.4727 0.13281 3.7148 0.41016l165.67 37.004c24.559 5.4844 48.957 12.793 72.523 21.723l111.64 42.289c-9.5312 13.281-14.676 29.137-14.676 45.703 0 17.098 5.4258 33.316 15.488 46.805l-110.24 39.305z"/>
  <path d="m1098.1 484.52c-12.188-20.168-36.352-30.941-60.176-26.812l-56.449 9.7969c-9.7617 1.707-20.004 1.2227-29.602-1.4062l-70.477-19.242c-22.922-6.2812-46.875-2.3789-65.66 10.676-42.258 29.352-69.168 85.891-75.816 101.01h-188.95c-30.188 0-54.75 24.562-54.75 54.758 0 30.188 24.562 54.75 54.75 54.75h31.137c16.223 0 32.109 6.5742 43.582 18.047 13.898 13.91 32.391 21.574 52.066 21.574h44.309c6.7305 0 13.285-1.0664 19.637-2.8242 18.383 22.387 49.73 60.145 69.508 73.219 18.504 12.246 39.691 18.41 66.656 19.395 0.73828 0.023437 1.4766 0.035156 2.2148 0.035156 4.3125 0 8.625-0.45703 12.844-1.3477l72.094-15.305c4.9688-1.0547 10.055-1.3477 15.199-0.83203l47.004 4.7812c15.504 1.6523 30.656-3.3984 41.836-13.594 23.566-21.504 51.645-69.164 51.645-174.06 0-49.91-7.6055-87.797-22.605-112.62zm-275.52-17.133c15.855-11.004 36.141-14.273 55.652-8.9531l70.477 19.242c9.832 2.6875 20.266 3.3477 30.43 2.1641-8.7695 3.4883-17.305 7.293-21.98 10.508-3.5078-1.6367-7.6406-2.6172-12.152-2.6172-12.809 0-22.852 7.5781-22.852 17.242 0 4.4102 2.1602 8.332 5.6484 11.352-10.031 12.102-19.938 28.617-25.117 42.215h-149.54c8.9375-19 33.746-66.367 69.434-91.152zm133.29 37.586c0 2.0859-4.3359 5.2383-10.863 5.2383s-10.852-3.1523-10.852-5.2383c0-2.0859 4.3242-5.2422 10.852-5.2422s10.863 3.1562 10.863 5.2422zm-233.8 190.7h-44.309c-16.465 0-31.945-6.4102-43.582-18.059-13.699-13.699-32.676-21.562-52.066-21.562h-31.137c-23.574 0-42.75-19.172-42.75-42.75s19.176-42.758 42.75-42.758h365.82c-2.7891 15.281-2.7773 26.312-2.7422 39.812v3.9258c0 10.113 0.31641 22.781 2.5078 35.309h-86.848c-15.539 0-30.422 4.793-43.02 13.863l-28.617 20.602c-10.547 7.5938-23.004 11.613-36.012 11.613zm168.38 88.734c-3.9961 0.85547-8.1562 1.2305-12.141 1.0547-32.402-1.1719-50.027-10.5-60.48-17.402-17.332-11.469-46.691-46.355-64.184-67.602 3.9648-1.8906 7.8242-4.0391 11.449-6.6484l28.617-20.602c10.547-7.5938 23.004-11.613 36.012-11.613h71.48c1.832 12.621 13.176 76.68 55.543 108.73zm90.984-16.324c-2.0977-0.21484-4.1953-0.15234-6.293-0.14844-45.469-23.613-59.113-90.215-61.781-106.34h10.582c1.8398 0 3.5742-0.84375 4.7109-2.2852 1.1367-1.4531 1.5586-3.3398 1.125-5.1328-3.293-13.559-3.7148-28.441-3.7148-39.891v-3.9492c-0.035157-14.812-0.058594-26.508 3.9492-44.484 0.39844-1.7812-0.035156-3.6367-1.1836-5.0625-1.1367-1.418-2.8594-2.2422-4.6758-2.2422h-8.5234c5.4609-12.449 14.645-27.035 23.402-36.977 1.9141 0.37891 3.8906 0.64844 5.9805 0.64844 12.82 0 22.863-7.5703 22.863-17.238 0-2.1797-0.57422-4.2344-1.5117-6.1367 6.1289-3.4961 17.152-7.9414 27.328-11.688-24.207 24.219-48.996 65.191-48.996 131.9 0 87.461 38.57 131.57 66.602 152.06l-29.863-3.0352zm91.191-34.066c4.1406-35.473 6.4141-73.828 6.4141-113.87 0-39.617-2.2148-77.59-6.2734-112.74 16.238 30.121 26.184 69.688 26.184 113.18 0 43.617-10.004 83.281-26.324 113.43z"/>
 </g>
</svg>
